<svg xmlns="http://www.w3.org/2000/svg" width="1400" height="420" viewBox="0 0 1400 420" role="img" aria-labelledby="title desc">
  <title id="title">Mikel Santamaría GitHub profile header</title>
  <desc id="desc">Cybersecurity, OT Security and AI Product Builder based in Madrid.</desc>
  <defs>
    <linearGradient id="bg" x1="0" y1="0" x2="1" y2="1">
      <stop offset="0%" stop-color="#f8fafc"/>
      <stop offset="58%" stop-color="#ecfeff"/>
      <stop offset="100%" stop-color="#e0f2fe"/>
    </linearGradient>
    <linearGradient id="line" x1="0" y1="0" x2="1" y2="0">
      <stop offset="0%" stop-color="#0284c7"/>
      <stop offset="100%" stop-color="#0f766e"/>
    </linearGradient>
  </defs>
  <rect width="1400" height="420" rx="28" fill="url(#bg)" stroke="#cbd5e1"/>
  <circle cx="1260" cy="30" r="210" fill="#bae6fd" opacity=".58"/>
  <circle cx="80" cy="420" r="175" fill="#99f6e4" opacity=".35"/>
  <g opacity=".23" stroke="#0369a1" fill="none">
    <path d="M940 80h270l90 90v130" stroke-width="2"/>
    <path d="M980 120h170l70 70v90" stroke-width="1.5"/>
    <circle cx="940" cy="80" r="5" fill="#0369a1"/>
    <circle cx="1210" cy="80" r="5" fill="#0369a1"/>
    <circle cx="1300" cy="170" r="5" fill="#0369a1"/>
  </g>
  <rect x="92" y="74" width="92" height="7" rx="3.5" fill="url(#line)"/>
  <text x="92" y="154" fill="#0f172a" font-family="Inter,Segoe UI,Arial,sans-serif" font-size="58" font-weight="750" letter-spacing="-1.5">Mikel Santamaría</text>
  <text x="94" y="210" fill="#075985" font-family="Inter,Segoe UI,Arial,sans-serif" font-size="27" font-weight="550">Cybersecurity · OT Security · AI Product Builder</text>
  <text x="94" y="267" fill="#475569" font-family="Inter,Segoe UI,Arial,sans-serif" font-size="21">Building secure, useful products from Madrid, Spain.</text>
  <g font-family="Inter,Segoe UI,Arial,sans-serif" font-size="16" font-weight="650">
    <rect x="92" y="310" width="170" height="43" rx="21.5" fill="#e0f2fe" stroke="#0284c7" stroke-opacity=".55"/>
    <text x="177" y="337" text-anchor="middle" fill="#075985">OT CYBERSECURITY</text>
    <rect x="278" y="310" width="135" height="43" rx="21.5" fill="#ccfbf1" stroke="#0f766e" stroke-opacity=".55"/>
    <text x="345.5" y="337" text-anchor="middle" fill="#115e59">AI AGENTS</text>
    <rect x="429" y="310" width="176" height="43" rx="21.5" fill="#e0e7ff" stroke="#4f46e5" stroke-opacity=".48"/>
    <text x="517" y="337" text-anchor="middle" fill="#3730a3">PRODUCT BUILDING</text>
  </g>
  <text x="1305" y="365" text-anchor="end" fill="#64748b" font-family="ui-monospace,SFMono-Regular,Consolas,monospace" font-size="15">github.com/lekimchopo</text>
</svg>
